<svg xmlns="http://www.w3.org/2000/svg" width="25" height="24" viewBox="0 0 25 24" fill="none">
  <path d="M8.47721 19.8725C9.14926 19.8336 9.81549 19.7028 10.4521 19.4846C11.7267 19.0477 12.8862 18.2289 13.5222 17.023C14.1369 15.858 14.1711 14.4332 13.6555 13.2263C12.9103 13.7531 12.004 14.0475 11.091 14.0727C8.33621 14.1483 6.17823 11.797 6.26929 9.11492C6.32751 7.40002 7.12616 5.73353 8.22043 4.43286C9.42606 2.99963 11.1167 1.99973 12.9564 1.62153C14.6876 1.26559 16.4877 1.46121 18.1006 2.18084C18.8644 2.52166 19.5728 2.97778 20.2005 3.52542C20.191 3.44464 20.0934 3.27652 19.9812 3.14782C19.1023 2.30958 18.0887 1.61144 16.9833 1.09151C16.5692 0.896796 16.1436 0.726988 15.7087 0.58315C13.0741 -0.288913 10.1997 -0.179838 7.62228 0.889848C5.04499 1.95979 2.94043 3.91737 1.70231 6.39724C1.33306 7.13684 1.04464 7.9159 0.844083 8.71728C0.137315 11.5425 0.455174 14.9581 2.39942 17.2638C3.13785 18.1396 4.072 18.8317 5.12734 19.2845C6.18268 19.7373 7.32969 19.9388 8.47721 19.8725Z" fill="#202020"/>
  <path d="M12.4399 5.92979C13.6702 4.66448 15.279 3.82883 17.0265 3.54805L17.0611 3.53608C15.5625 3.19603 13.9933 3.34133 12.5838 3.95089C11.5309 4.40603 10.5936 5.11277 9.8685 5.99804C9.21646 6.79412 8.74227 7.7257 8.60624 8.75109C8.54101 9.24201 8.55089 9.74222 8.63551 10.2302C8.82803 11.3442 9.39989 12.3584 10.2553 13.1029L10.2647 13.1085C10.0832 12.2713 10.0628 11.4126 10.1997 10.5768L10.2011 10.568C10.4245 8.82212 11.2097 7.19469 12.44 5.92938L12.4398 5.92953L12.4399 5.92979Z" fill="#B7EBE1"/>
  <path d="M10.2284 13.0794C10.2314 13.0929 10.2344 13.1064 10.2375 13.1202L10.252 13.1129C10.2518 13.1082 10.2516 13.1038 10.2511 13.0992C10.2434 13.0926 10.2361 13.086 10.2284 13.0794Z" fill="#909090"/>
  <path d="M10.2475 13.0254C10.0821 12.2144 10.0676 11.3848 10.1998 10.5768L10.2013 10.568C10.6444 7.10239 14.0813 4.56716 17.5183 4.85654C19.7705 5.04605 21.6916 6.38015 22.9403 8.21065C23.4835 9.00711 23.8982 9.88911 24.1645 10.8142C24.7571 12.8741 24.541 15.1576 23.703 17.1205C23.703 17.1205 23.6825 16.6081 23.6679 16.3841C23.6499 16.1027 23.6216 15.8223 23.5837 15.5431C23.5095 14.9984 23.3975 14.4585 23.2491 13.9288C22.611 11.6543 21.3492 9.48826 19.1059 8.49463C18.7791 8.34983 18.4406 8.23209 18.0941 8.14305C15.9639 7.59451 13.7484 8.27813 12.0085 9.53665C11.4785 9.91991 11.043 10.3614 10.73 10.941C10.3845 11.5812 10.2182 12.3012 10.2474 13.0258L10.2475 13.0254Z" fill="#83CDC0"/>
  <path d="M12.2794 9.3476L12.2789 9.34898C12.7956 9.10406 13.2714 8.93504 13.8031 8.8653C14.7651 8.73925 15.7653 8.97578 16.5773 9.50105C18.3658 10.6582 19.0073 13.0531 18.8466 15.0634C18.7784 15.916 18.5695 16.7567 18.2415 17.5464C17.8534 18.4806 17.2942 19.3428 16.5981 20.0797C15.3962 21.3521 13.8236 22.2184 12.1011 22.5572C10.379 22.8959 8.59323 22.6903 6.99437 21.9692C6.18932 21.6058 5.45175 21.1209 4.80597 20.5361C4.84259 20.6613 4.86649 20.7317 4.98536 20.8641C6.36382 22.2318 8.08946 23.2364 10.0079 23.7589C10.2324 23.8201 10.4587 23.8743 10.6863 23.9216C12.6506 24.1767 14.7118 23.8151 16.5598 22.7542C17.9259 21.9699 19.0176 20.8942 19.8009 19.6517C19.3055 21.0341 18.4808 22.3051 17.3609 23.3371C18.7243 22.7937 19.9703 21.9808 20.9445 20.8669C21.8073 19.8802 22.4389 18.7 22.779 17.4371C23.2667 15.627 23.1434 13.677 22.4311 11.942C22.354 11.7542 22.2736 11.5614 22.1892 11.3664C21.4705 10.1351 20.4695 9.09801 19.1061 8.49407C18.7793 8.34927 18.4408 8.23153 18.0943 8.14249C16.0731 7.6221 13.9753 8.21092 12.2797 9.34745L12.2794 9.3476Z" fill="#12A594"/>
</svg>
