<svg version="1.2" xmlns="http://www.w3.org/2000/svg" viewBox="0 0 1000 1000" width="1000" height="1000">
	<title>logo</title>
	<style>
		.s0 { fill: #ffffff } 
		.s1 { fill: #202020 } 
		.s2 { fill: #b7ebe1 } 
		.s3 { fill: #909090 } 
		.s4 { fill: #83cdc0 } 
		.s5 { fill: #12a594 } 
	</style>
	<path id="形状 1" fill-rule="evenodd" class="s0" d="m500 950c-248.9 0-450-201.2-450-450 0-248.9 201.2-450 450-450 248.8 0 450 201.1 450 450 0 248.8-201.2 450-450 450z"/>
	<path class="s1" d="m398.8 698.1c16.9-1 33.7-4.3 49.7-9.8 32-11 61.2-31.6 77.2-61.9 15.5-29.3 16.3-65.2 3.4-95.5-18.8 13.2-41.6 20.6-64.5 21.2-69.3 1.9-123.6-57.2-121.3-124.7 1.4-43.1 21.5-85 49-117.8 30.4-36 72.9-61.2 119.2-70.7 43.5-8.9 88.8-4 129.4 14.1 19.2 8.6 37 20 52.8 33.8-0.2-2-2.7-6.3-5.5-9.5-22.1-21.1-47.6-38.6-75.4-51.7-10.4-4.9-21.1-9.2-32.1-12.8-66.3-22-138.6-19.2-203.4 7.7-64.8 26.9-117.8 76.2-148.9 138.6-9.3 18.6-16.6 38.2-21.6 58.3-17.8 71.1-9.8 157 39.1 215 18.6 22.1 42.1 39.5 68.6 50.9 26.6 11.3 55.4 16.4 84.3 14.8z"/>
	<path class="s2" d="m498.5 347.3c30.9-31.8 71.4-52.9 115.4-59.9l0.8-0.3c-37.7-8.6-77.1-4.9-112.6 10.4-26.5 11.5-50.1 29.2-68.3 51.5-16.4 20-28.3 43.5-31.8 69.3-1.6 12.3-1.4 24.9 0.8 37.2 4.8 28 19.2 53.5 40.7 72.2l0.3 0.2c-4.6-21.1-5.1-42.7-1.7-63.7l0.1-0.2c5.6-43.9 25.3-84.9 56.3-116.7z"/>
	<path class="s3" d="m442.9 527.2q0.1 0.5 0.2 1l0.3-0.2q0-0.2 0-0.3-0.3-0.3-0.5-0.5z"/>
	<path class="s4" d="m443.3 525.8c-4.1-20.4-4.5-41.3-1.2-61.6l0.1-0.2c11.1-87.2 97.6-151 184-143.7 56.7 4.8 105 38.3 136.4 84.4 13.7 20 24.1 42.2 30.8 65.5 15 51.8 9.5 109.2-11.6 158.6 0 0-0.5-12.9-0.8-18.5q-0.7-10.6-2.2-21.2c-1.8-13.7-4.6-27.2-8.4-40.6-16-57.2-47.8-111.7-104.2-136.7-8.2-3.6-16.8-6.6-25.5-8.8-53.6-13.8-109.3 3.4-153.1 35-13.3 9.7-24.3 20.8-32.1 35.4-8.7 16.1-12.9 34.2-12.2 52.4z"/>
	<path class="s5" d="m494.5 433.3h-0.1c13-6.2 25-10.4 38.4-12.2 24.2-3.1 49.3 2.8 69.8 16 45 29.1 61.1 89.4 57.1 140-1.8 21.4-7 42.6-15.3 62.4-9.7 23.5-23.8 45.2-41.3 63.8-30.2 32-69.8 53.8-113.1 62.3-43.4 8.5-88.3 3.3-128.5-14.8-20.3-9.1-38.8-21.3-55.1-36.1 1 3.2 1.6 5 4.6 8.3 34.6 34.4 78 59.7 126.3 72.8q8.5 2.3 17.1 4.1c49.4 6.4 101.2-2.7 147.7-29.4 34.4-19.7 61.9-46.7 81.6-78-12.5 34.8-33.2 66.8-61.4 92.7 34.3-13.7 65.6-34.1 90.1-62.1 21.7-24.9 37.6-54.5 46.2-86.3 12.3-45.6 9.2-94.6-8.8-138.3-1.9-4.7-3.9-9.5-6-14.4-18.1-31-43.3-57.1-77.6-72.3-8.2-3.6-16.7-6.6-25.5-8.8-50.8-13.1-103.6 1.7-146.2 30.3z"/>
</svg>