<svg width="256" height="256" viewBox="0 0 256 256" fill="none" xmlns="http://www.w3.org/2000/svg">
<rect width="256" height="256" fill="#171717"/>
<path d="M112.553 125.804C115.133 125.654 117.692 125.152 120.136 124.314C125.031 122.636 129.483 119.492 131.925 114.862C134.286 110.388 134.417 104.917 132.437 100.282C129.576 102.305 126.096 103.436 122.589 103.533C112.011 103.823 103.724 94.7938 104.074 84.4946C104.298 77.9094 107.364 71.5101 111.567 66.5155C116.196 61.0119 122.688 57.1723 129.753 55.72C136.401 54.3532 143.313 55.1044 149.506 57.8678C152.44 59.1765 155.16 60.928 157.57 63.0309C157.534 62.7207 157.159 62.0752 156.728 61.5809C153.353 58.3621 149.461 55.6812 145.216 53.6847C143.626 52.937 141.991 52.285 140.322 51.7326C130.205 48.3839 119.167 48.8027 109.27 52.9103C99.3728 57.0189 91.2913 64.536 86.5369 74.0587C85.119 76.8988 84.0114 79.8904 83.2413 82.9677C80.5273 93.8164 81.7479 106.932 89.2138 115.786C92.0494 119.149 95.6365 121.807 99.689 123.546C103.742 125.284 108.146 126.058 112.553 125.804Z" fill="#EEEEEE"/>
<path d="M127.769 72.2637C132.494 67.4049 138.671 64.196 145.382 63.1178L145.515 63.0718C139.76 61.7661 133.734 62.324 128.322 64.6647C124.279 66.4125 120.679 69.1263 117.895 72.5258C115.391 75.5827 113.57 79.16 113.048 83.0975C112.797 84.9826 112.835 86.9035 113.16 88.7774C113.9 93.0552 116.095 96.9497 119.38 99.8086L119.417 99.8301C118.719 96.6153 118.641 93.3179 119.167 90.1082L119.172 90.0745C120.03 83.3703 123.045 77.1209 127.77 72.2621L127.769 72.2627L127.769 72.2637Z" fill="#B7EBE1"/>
<path d="M119.277 99.7181C119.288 99.77 119.3 99.8219 119.312 99.8749L119.368 99.8469C119.367 99.8289 119.366 99.8119 119.364 99.7945C119.334 99.7689 119.307 99.7437 119.277 99.7181Z" fill="#909090"/>
<path d="M119.35 99.5107C118.715 96.3965 118.659 93.2108 119.167 90.108L119.173 90.0743C120.874 76.7664 134.072 67.0311 147.27 68.1423C155.919 68.87 163.296 73.993 168.091 81.0221C170.177 84.0805 171.769 87.4673 172.792 91.0198C175.067 98.9299 174.238 107.698 171.019 115.236C171.019 115.236 170.941 113.268 170.885 112.408C170.815 111.327 170.707 110.251 170.561 109.179C170.276 107.087 169.846 105.014 169.277 102.98C166.826 94.2458 161.981 85.9281 153.367 82.1125C152.112 81.5565 150.812 81.1044 149.481 80.7625C141.301 78.6561 132.794 81.2812 126.113 86.1139C124.077 87.5856 122.405 89.2808 121.203 91.5068C119.876 93.9648 119.238 96.7296 119.35 99.5122L119.35 99.5107Z" fill="#83CDC0"/>
<path d="M127.153 85.3882L127.151 85.3935C129.135 84.453 130.962 83.8039 133.004 83.5362C136.698 83.0521 140.539 83.9604 143.657 85.9774C150.525 90.4207 152.988 99.6174 152.371 107.337C152.109 110.611 151.307 113.839 150.047 116.872C148.557 120.459 146.41 123.77 143.737 126.599C139.121 131.485 133.083 134.812 126.468 136.113C119.855 137.414 112.998 136.624 106.858 133.855C103.767 132.46 100.935 130.598 98.4548 128.352C98.5955 128.833 98.6872 129.103 99.1437 129.612C104.437 134.864 111.063 138.721 118.43 140.728C119.292 140.962 120.162 141.171 121.035 141.352C128.578 142.332 136.493 140.943 143.59 136.869C148.835 133.858 153.028 129.727 156.036 124.956C154.133 130.264 150.966 135.145 146.666 139.108C151.901 137.021 156.686 133.899 160.427 129.622C163.74 125.833 166.165 121.301 167.471 116.452C169.344 109.501 168.871 102.013 166.136 95.3508C165.839 94.6296 165.531 93.8892 165.206 93.1404C162.447 88.4124 158.603 84.4298 153.368 82.1106C152.113 81.5546 150.813 81.1024 149.482 80.7605C141.721 78.7622 133.665 81.0233 127.154 85.3876L127.153 85.3882Z" fill="#12A594"/>
<path d="M158.102 199.189V172.112H162.507V199.189H158.102Z" fill="#12A594"/>
<path d="M62.7709 180.179C60.7542 179.348 58.519 179.204 56.4119 179.769C54.3049 180.334 52.4437 181.576 51.1171 183.303C49.7904 185.03 49.0725 187.144 49.0747 189.319C49.0769 191.494 49.799 193.607 51.1291 195.332C52.4592 197.056 54.3228 198.294 56.4311 198.855C58.5393 199.415 60.7742 199.267 62.7891 198.433C64.8041 197.598 66.4865 196.124 67.5754 194.24L63.758 192.048C63.1531 193.095 62.2184 193.914 61.099 194.378C59.9795 194.841 58.7379 194.924 57.5667 194.612C56.3955 194.301 55.3601 193.613 54.6212 192.655C53.8822 191.697 53.4811 190.523 53.4799 189.315C53.4786 188.107 53.8775 186.932 54.6145 185.972C55.3515 185.013 56.3855 184.323 57.5561 184.009C58.7267 183.695 59.9685 183.775 61.0888 184.237C62.2092 184.698 63.1455 185.515 63.7525 186.561L67.5655 184.362C66.4729 182.48 64.7875 181.009 62.7709 180.179Z" fill="#EEEEEE"/>
<path d="M75.322 187.48C75.322 185.459 76.9655 183.821 78.9929 183.821H83.398V179.43H78.9929C74.5326 179.43 70.9168 183.034 70.9168 187.48V199.189H75.322V187.48Z" fill="#EEEEEE"/>
<path fill-rule="evenodd" clip-rule="evenodd" d="M122.038 179.526C120.749 179.346 119.437 179.42 118.176 179.745C117.098 180.023 116.076 180.48 115.152 181.095V179.43H110.747V206.507H115.152V197.524C115.307 197.627 115.466 197.727 115.628 197.822C116.749 198.48 117.99 198.912 119.279 199.093C120.568 199.273 121.88 199.199 123.14 198.874C124.4 198.549 125.584 197.98 126.623 197.199C127.663 196.419 128.538 195.441 129.198 194.323C129.859 193.206 130.292 191.969 130.473 190.684C130.654 189.4 130.58 188.092 130.254 186.836C129.928 185.58 129.357 184.4 128.574 183.364C127.791 182.328 126.81 181.456 125.689 180.797C124.567 180.139 123.326 179.707 122.038 179.526ZM119.279 183.996C119.979 183.815 120.708 183.774 121.424 183.874C122.141 183.975 122.83 184.215 123.453 184.58C124.076 184.946 124.621 185.431 125.056 186.006C125.491 186.582 125.808 187.237 125.989 187.935C126.17 188.633 126.212 189.359 126.111 190.073C126.01 190.787 125.77 191.474 125.403 192.095C125.036 192.716 124.549 193.259 123.972 193.693C123.394 194.126 122.737 194.443 122.037 194.623C121.337 194.804 120.608 194.845 119.892 194.744C119.176 194.644 118.486 194.404 117.863 194.038C117.24 193.673 116.696 193.188 116.261 192.612C115.825 192.037 115.508 191.381 115.327 190.684C115.146 189.986 115.105 189.259 115.205 188.546C115.306 187.832 115.547 187.145 115.914 186.524C116.281 185.903 116.767 185.36 117.344 184.926C117.922 184.492 118.579 184.176 119.279 183.996Z" fill="#EEEEEE"/>
<path fill-rule="evenodd" clip-rule="evenodd" d="M95.9738 179.526C94.6849 179.346 93.3729 179.42 92.1128 179.745C90.8526 180.07 89.669 180.639 88.6295 181.419C87.59 182.2 86.7149 183.177 86.0543 184.295C85.3937 185.413 84.9605 186.65 84.7793 187.934C84.5982 189.219 84.6727 190.527 84.9986 191.783C85.3245 193.039 85.8954 194.219 86.6787 195.255C87.462 196.291 88.4424 197.163 89.5639 197.822C90.6854 198.48 91.9261 198.912 93.215 199.093C94.5039 199.273 95.8159 199.199 97.0761 198.874C98.1545 198.596 99.1769 198.139 100.101 197.524V199.189H104.506V179.43H100.101V181.095C99.9452 180.991 99.7865 180.892 99.6249 180.797C98.5034 180.139 97.2628 179.707 95.9738 179.526ZM93.2157 183.996C93.9158 183.815 94.6447 183.774 95.3608 183.874C96.0768 183.975 96.7661 184.215 97.3891 184.58C98.0122 184.946 98.5569 185.431 98.992 186.006C99.4272 186.582 99.7444 187.237 99.9254 187.935C100.106 188.633 100.148 189.359 100.047 190.073C99.9466 190.787 99.7059 191.474 99.3389 192.095C98.9719 192.716 98.4858 193.259 97.9083 193.693C97.3308 194.126 96.6732 194.443 95.9731 194.623C95.273 194.804 94.5441 194.845 93.8281 194.744C93.112 194.644 92.4228 194.404 91.7997 194.038C91.1766 193.673 90.632 193.188 90.1968 192.612C89.7616 192.037 89.4444 191.381 89.2634 190.684C89.0823 189.986 89.041 189.259 89.1416 188.546C89.2422 187.832 89.4829 187.145 89.8499 186.524C90.2169 185.903 90.7031 185.36 91.2806 184.926C91.8581 184.492 92.5156 184.176 93.2157 183.996Z" fill="#EEEEEE"/>
<path d="M195.675 179.43C192.359 179.43 189.672 182.109 189.672 185.413C189.672 188.424 191.916 190.966 194.912 191.348L200.199 192.023C200.896 192.112 201.419 192.704 201.419 193.405C201.419 194.174 200.793 194.798 200.021 194.798H190.773V199.189H200.021C203.226 199.189 205.824 196.599 205.824 193.405C205.824 190.494 203.654 188.037 200.758 187.668L195.472 186.993C194.674 186.891 194.077 186.215 194.077 185.413C194.077 184.534 194.792 183.821 195.675 183.821H204.356V179.43H195.675Z" fill="#12A594"/>
<path d="M30.72 185.413C30.72 182.109 33.4076 179.43 36.7228 179.43H45.4038V183.821H36.7228C35.8404 183.821 35.1251 184.534 35.1251 185.413C35.1251 186.215 35.7225 186.891 36.5199 186.993L41.8064 187.668C44.7026 188.037 46.8722 190.494 46.8722 193.405C46.8722 196.599 44.2742 199.189 41.0694 199.189H31.8213V194.798H41.0694C41.8413 194.798 42.467 194.174 42.467 193.405C42.467 192.704 41.9445 192.112 41.2469 192.023L35.9604 191.348C32.9644 190.966 30.72 188.424 30.72 185.413Z" fill="#EEEEEE"/>
<path d="M215.131 179.43C211.815 179.43 209.128 182.109 209.128 185.413C209.128 188.424 211.372 190.966 214.368 191.348L219.655 192.023C220.352 192.112 220.875 192.704 220.875 193.405C220.875 194.174 220.249 194.798 219.477 194.798H210.229V199.189H219.477C222.682 199.189 225.28 196.599 225.28 193.405C225.28 190.494 223.11 188.037 220.214 187.668L214.928 186.993C214.13 186.891 213.533 186.215 213.533 185.413C213.533 184.534 214.248 183.821 215.131 183.821H223.812V179.43H215.131Z" fill="#12A594"/>
<path fill-rule="evenodd" clip-rule="evenodd" d="M133.506 189.492C133.506 183.935 138.026 179.43 143.602 179.43H143.785C149.259 179.43 153.697 183.853 153.697 189.309C153.697 189.93 153.641 190.54 153.534 191.133L138.1 191.139C138.717 193.475 140.786 195.164 143.422 195.164C144.908 195.164 145.969 194.999 146.874 194.675C147.773 194.353 148.649 193.829 149.704 192.939L152.55 196.291C151.219 197.413 149.892 198.261 148.361 198.808C146.835 199.354 145.236 199.555 143.422 199.555C137.767 199.555 133.506 195.097 133.506 189.667V189.492ZM138.435 187.114C139.337 185.17 141.311 183.821 143.602 183.821H143.785C146.043 183.821 147.984 185.176 148.833 187.114H138.435Z" fill="#EEEEEE"/>
<path fill-rule="evenodd" clip-rule="evenodd" d="M166.178 189.492C166.178 183.935 170.698 179.43 176.273 179.43H176.456C181.93 179.43 186.368 183.853 186.368 189.309C186.368 189.93 186.312 190.54 186.205 191.133L170.772 191.139C171.388 193.475 173.457 195.164 176.094 195.164C177.58 195.164 178.64 194.999 179.545 194.675C180.445 194.353 181.32 193.829 182.376 192.939L185.221 196.291C183.89 197.413 182.563 198.261 181.032 198.808C179.506 199.354 177.907 199.555 176.094 199.555C170.439 199.555 166.178 195.097 166.178 189.667V189.492ZM171.106 187.114H181.505C180.655 185.176 178.714 183.821 176.456 183.821H176.273C173.983 183.821 172.008 185.17 171.106 187.114Z" fill="#12A594"/>
</svg>
